<?xml version="1.0" encoding="UTF-8" standalone="no"?>
<!DOCTYPE svg PUBLIC "-//W3C//DTD SVG 1.1//EN" "http://www.w3.org/Graphics/SVG/1.1/DTD/svg11.dtd">
<svg version="1.1" xmlns="http://www.w3.org/2000/svg" xmlns:xlink="http://www.w3.org/1999/xlink" preserveAspectRatio="xMidYMid meet" viewBox="0 0 1600 100" width="800" height="50"><defs><path d="M0 -90L1600 -90L1600 -10L0 -10L0 -90Z" id="a3FP4Lx6vS"></path><path d="M800 -30L800 -90L800 -30Z" id="a17fmkoBHV"></path><path d="M1200 -10L1200 -70L1200 -10Z" id="d2TOLKECjE"></path><path d="M1000 -30L1000 -70L1000 -30Z" id="fdPGWD3mT"></path><path d="M1400 -30L1400 -70L1400 -30Z" id="b9wAsROj3"></path><path d="M405.91 -10L405.91 -70L405.91 -10Z" id="a2lFmFuPBe"></path><path d="M600 -30L600 -70L600 -30Z" id="c65q51z2dB"></path><path d="M206.45 -30L206.45 -70L206.45 -30Z" id="bd2yy7wnq"></path><path d="M75 75L750 75C776.48 48.52 793.02 31.98 799.64 25.36C799.84 25.16 800.16 25.16 800.36 25.36C806.98 31.98 823.52 48.52 850 75L1525 75" id="a7n2aFqGJb"></path><path d="M25 74L75 74L75 76L25 76L25 74Z" id="jldK9Yufg"></path><linearGradient id="gradientfg2zm7oeh" gradientUnits="userSpaceOnUse" x1="25" y1="75" x2="75" y2="75"><stop style="stop-color: #ffffff;stop-opacity: 0" offset="0%"></stop><stop style="stop-color: #2b2b2b;stop-opacity: 1" offset="100%"></stop></linearGradient><path d="M1575 74L1525 74L1525 76L1575 76L1575 74Z" id="h3Ae4vy4r"></path><linearGradient id="gradienta1r2pls0Pb" gradientUnits="userSpaceOnUse" x1="1575" y1="75" x2="1525" y2="75"><stop style="stop-color: #ffffff;stop-opacity: 0" offset="0%"></stop><stop style="stop-color: #2b2b2b;stop-opacity: 1" offset="100%"></stop></linearGradient></defs><g><g><g><use xlink:href="#a3FP4Lx6vS" opacity="1" fill="#77cfd2" fill-opacity="1"></use></g><g><g><use xlink:href="#a17fmkoBHV" opacity="1" fill-opacity="0" stroke="#000000" stroke-width="1" stroke-opacity="1"></use></g></g><g><g><use xlink:href="#d2TOLKECjE" opacity="1" fill-opacity="0" stroke="#000000" stroke-width="1" stroke-opacity="1"></use></g></g><g><g><use xlink:href="#fdPGWD3mT" opacity="1" fill-opacity="0" stroke="#000000" stroke-width="1" stroke-opacity="1"></use></g></g><g><g><use xlink:href="#b9wAsROj3" opacity="1" fill-opacity="0" stroke="#000000" stroke-width="1" stroke-opacity="1"></use></g></g><g><g><use xlink:href="#a2lFmFuPBe" opacity="1" fill-opacity="0" stroke="#000000" stroke-width="1" stroke-opacity="1"></use></g></g><g><g><use xlink:href="#c65q51z2dB" opacity="1" fill-opacity="0" stroke="#000000" stroke-width="1" stroke-opacity="1"></use></g></g><g><g><use xlink:href="#bd2yy7wnq" opacity="1" fill-opacity="0" stroke="#000000" stroke-width="1" stroke-opacity="1"></use></g></g><g><g><use xlink:href="#a7n2aFqGJb" opacity="1" fill-opacity="0" stroke="#2b2b2b" stroke-width="2" stroke-opacity="1"></use></g></g><g><use xlink:href="#jldK9Yufg" opacity="1" fill="url(#gradientfg2zm7oeh)"></use></g><g><use xlink:href="#h3Ae4vy4r" opacity="1" fill="url(#gradienta1r2pls0Pb)"></use></g></g></g></svg>